<?xml version="1.0" encoding="utf-8"?>
<!-- Generator: Adobe Illustrator 16.0.0, SVG Export Plug-In . SVG Version: 6.00 Build 0)  -->
<!DOCTYPE svg PUBLIC "-//W3C//DTD SVG 1.1//EN" "http://www.w3.org/Graphics/SVG/1.1/DTD/svg11.dtd">
<svg version="1.1" id="Layer_1" xmlns="http://www.w3.org/2000/svg" xmlns:xlink="http://www.w3.org/1999/xlink" x="0px" y="0px"
	 width="2500px" height="2378px" viewBox="0 0 2500 2378" enable-background="new 0 0 2500 2378" xml:space="preserve">
<path fill="#00CC66" d="M1245.934,2369.193C592.941,2365.736,67.571,1841.189,68.666,1187.219
	C69.756,534.408,595.939,8.832,1250.104,9.931c652.658,1.09,1178.375,527.006,1177.266,1181.458
	C2426.27,1844.777,1899.646,2367.957,1245.934,2369.193z M1247.791,2182.993c546.646,1.916,993.913-447.268,994.335-992.876
	c0.421-546.381-446.871-994.155-992.7-994.908c-547.416-0.756-995.716,447.911-995.497,994.45
	C254.142,1735.524,701.459,2184.689,1247.791,2182.993z"/>
<path fill="#FFFFFF" d="M1101.59,1576.135c0,12.687,0,21.096,0,32.665c-9.063,2.134-17.67,5.793-26.332,5.923
	c-46.828,0.664-93.841,3.03-140.469-0.023c-77.237-5.063-137.315-40.76-175.585-109.724
	c-18.958-34.159-26.032-70.977-25.985-109.819c0.224-201.405-1.394-402.832,0.746-604.219
	c0.844-79.502,39.591-140.548,110.061-179.812c34.184-19.042,71.073-25.712,109.913-25.657
	c199.068,0.284,398.135,0.024,597.203,0.178c97.513,0.078,180.418,63.502,204.144,156.763c4.359,17.146,7.087,35.221,7.135,52.877
	c0.512,205.313,0.52,410.625,0.201,615.94c-0.037,25.767-6.281,50.797-16.795,74.416c-8.015,17.996-24.506,22.119-39.654,9.244
	c-12.455-10.573-24.719-21.956-34.396-34.963c-4.758-6.398-4.543-17.284-4.635-26.158c-0.109-9.978,2.934-19.974,2.945-29.963
	c0.188-202.189-0.482-404.381,0.506-606.565c0.317-64.497-56.498-119.979-120.346-119.59c-201.404,1.229-402.82,1.173-604.225,0.036
	c-64.138-0.363-120.71,54.748-120.462,119.673c0.768,202.185,0.627,404.379,0.083,606.567
	c-0.174,64.35,55.057,119.976,118.715,118.651c25.745-0.531,51.55,0.688,77.271-0.354c17.07-0.688,29.693,5.111,41.205,17.442
	C1075.564,1553.302,1089.99,1565.347,1101.59,1576.135z"/>
<path fill="#FFFFFF" d="M1409.261,1748.155c-159.938-161.444-321.879-324.914-487.51-492.111c0-61.582,0-130.058,0-200.264
	c69.309,0,137.617,0,208.38,0c160.741,162.598,322.973,326.708,483.046,488.636
	C1546.829,1610.709,1478.64,1678.837,1409.261,1748.155z M1183.434,1211.194c-28.791-28.894-57.328-57.526-85.854-86.157
	c-11.12,0-23.225,0-38.003,0c0,23.282,0,44.741,0,68.354c-13.476,0-24.239,0-35.003,0c-10.677,0-21.351,0-33.346,0
	c0,16.181,0,29.184,0,42.558c19.383,25.192,71.693,75.525,85.162,82.356C1112.443,1282.232,1148.226,1246.426,1183.434,1211.194z
	 M1505.364,1566.413c7.489-7.385,14.026-13.837,21.327-21.033c-7.288-9.045-12.058-16.192-18.004-22.157
	c-79.313-79.569-158.736-159.022-238.338-238.294c-6.41-6.387-14.295-11.266-22.974-17.979
	c-7.108,7.123-12.818,12.844-20.022,20.059c7.577,9.855,13.242,19.145,20.713,26.651c77.019,77.43,154.285,154.64,231.672,231.722
	C1486.799,1552.41,1495.186,1558.126,1505.364,1566.413z"/>
<path fill="#FFFFFF" d="M1673.499,1599.201c22.596,22.352,48.71,44.886,70.666,70.922c18.705,22.181,15.716,64.391-6.142,85.595
	c-39.196,38.015-78.039,76.429-115.783,115.875c-20.028,20.933-64.646,23.956-85.779,5.595
	c-25.729-22.353-48.449-48.176-70.537-70.546C1535.266,1737.343,1603.443,1669.214,1673.499,1599.201z"/>
</svg>
