<svg xmlns="http://www.w3.org/2000/svg" viewBox="0 0 150.25 53.87"><defs><style>.cls-1,.cls-3{isolation:isolate;}.cls-1{opacity:0.1;}.cls-2{fill:#0ba859;}.cls-4{fill:#fff;}.cls-5{fill:#32363d;}</style></defs><g id="Layer_2" data-name="Layer 2"><g id="Layer_1-2" data-name="Layer 1"><g class="cls-1"><rect class="cls-2" width="150.25" height="53.87" rx="5.12"/></g><g class="cls-3"><path class="cls-4" d="M35.09,25c0,5-3.13,9.38-7.85,12a3.81,3.81,0,0,1-3.62,0C18.9,34.4,15.78,30,15.78,25c0-.21,0-.42,0-.63a3.1,3.1,0,0,1,1.81-2.59,17.9,17.9,0,0,1,7.82-1.74,17.83,17.83,0,0,1,7.82,1.74,3.1,3.1,0,0,1,1.81,2.59A4.43,4.43,0,0,1,35.09,25Z"/></g><path class="cls-2" d="M35.86,24.36a3.87,3.87,0,0,0-2.25-3.27,16.7,16.7,0,0,0-2.52-1v-.47a5.66,5.66,0,0,0-11.32,0v.47a17.66,17.66,0,0,0-2.51,1A3.85,3.85,0,0,0,15,24.31,5.62,5.62,0,0,0,15,25c0,5.11,3.09,9.84,8.26,12.65a4.56,4.56,0,0,0,4.38,0c5.18-2.81,8.27-7.54,8.27-12.65A6.52,6.52,0,0,0,35.86,24.36ZM21.37,19.63a4.06,4.06,0,0,1,8.12,0v.05a19.38,19.38,0,0,0-8.12,0Zm5.48,16.64a3,3,0,0,1-2.85,0c-4.65-2.53-7.42-6.73-7.42-11.25,0-.18,0-.36,0-.59A2.27,2.27,0,0,1,18,22.52a17.54,17.54,0,0,1,14.94,0,2.35,2.35,0,0,1,1.37,2,4.87,4.87,0,0,1,0,.54C34.29,29.54,31.51,33.74,26.85,36.27Z"/><path class="cls-2" d="M25.43,26.35a1.56,1.56,0,0,0-.73,2.95v1.53a.73.73,0,0,0,1.46,0V29.3a1.56,1.56,0,0,0-.73-2.95Z"/><path class="cls-2" d="M25.43,22.69a8.24,8.24,0,0,0-5.07,1.72.81.81,0,0,0-.14,1.13.8.8,0,0,0,1.12.14,6.81,6.81,0,0,1,8.18,0,.81.81,0,0,0,1.13-.14.81.81,0,0,0-.15-1.13A8.22,8.22,0,0,0,25.43,22.69Z"/><path class="cls-5" d="M46.83,21.29a4.65,4.65,0,0,0,3.39,1.44c1.25,0,1.86-.59,1.86-1.2,0-.8-.93-1.07-2.16-1.36-1.74-.4-4-.88-4-3.26,0-1.78,1.54-3.22,4-3.22a5.94,5.94,0,0,1,4.17,1.49l-1.27,1.66a4.55,4.55,0,0,0-3.06-1.16c-1,0-1.56.44-1.56,1.08s.89.95,2.12,1.24c1.77.4,4,.92,4,3.29,0,2-1.4,3.43-4.28,3.43A6.15,6.15,0,0,1,45.58,23Z"/><path class="cls-5" d="M59.38,16.6c2.3,0,3.87,1.73,3.87,4.26v.45H57.5a2.09,2.09,0,0,0,2.23,1.79,3.14,3.14,0,0,0,2.06-.77l.9,1.32a4.86,4.86,0,0,1-3.19,1.07,3.92,3.92,0,0,1-4.13-4.07A3.94,3.94,0,0,1,59.38,16.6Zm-1.91,3.33h3.81a1.79,1.79,0,0,0-1.9-1.71A1.86,1.86,0,0,0,57.47,19.93Z"/><path class="cls-5" d="M68.32,16.6A3.61,3.61,0,0,1,71.38,18l-1.33,1.25a1.87,1.87,0,0,0-1.63-.84,2.07,2.07,0,0,0-2.1,2.24,2.08,2.08,0,0,0,2.1,2.26,2,2,0,0,0,1.63-.83l1.33,1.23a3.59,3.59,0,0,1-3.06,1.41,3.93,3.93,0,0,1-4.1-4.07A3.93,3.93,0,0,1,68.32,16.6Z"/><path class="cls-5" d="M77.92,23.55a3.64,3.64,0,0,1-2.72,1.17,2.21,2.21,0,0,1-2.5-2.43V16.8h2v4.69c0,1.07.56,1.42,1.43,1.42A2.27,2.27,0,0,0,77.92,22V16.8h2v7.73h-2Z"/><path class="cls-5" d="M82,16.8h2v1.05a3.28,3.28,0,0,1,2.46-1.23v2a2.65,2.65,0,0,0-.56-.06,2.58,2.58,0,0,0-1.9.88v5.11H82Z"/><path class="cls-5" d="M91.23,16.6c2.31,0,3.87,1.73,3.87,4.26v.45H89.36a2.08,2.08,0,0,0,2.22,1.79,3.19,3.19,0,0,0,2.07-.77l.89,1.32a4.81,4.81,0,0,1-3.18,1.07,3.92,3.92,0,0,1-4.13-4.07A3.94,3.94,0,0,1,91.23,16.6Zm-1.9,3.33h3.81a1.8,1.8,0,0,0-1.91-1.71A1.85,1.85,0,0,0,89.33,19.93Z"/><path class="cls-5" d="M46.31,36.17a3.35,3.35,0,0,0,2.51,1.14c1.43,0,1.89-.77,1.89-1.38,0-1-1-1.22-2-1.51-1.28-.34-2.71-.7-2.71-2.27,0-1.32,1.18-2.22,2.75-2.22a3.75,3.75,0,0,1,2.84,1.12l-.6.73a3.07,3.07,0,0,0-2.32-1c-1,0-1.64.52-1.64,1.27s.92,1,1.94,1.32c1.31.35,2.8.76,2.8,2.44,0,1.16-.79,2.35-3,2.35a4,4,0,0,1-3.07-1.27Z"/><path class="cls-5" d="M53.34,36.17a3.38,3.38,0,0,0,2.52,1.14c1.42,0,1.88-.77,1.88-1.38,0-1-1-1.22-2-1.51-1.28-.34-2.71-.7-2.71-2.27,0-1.32,1.18-2.22,2.75-2.22a3.75,3.75,0,0,1,2.84,1.12l-.6.73a3.06,3.06,0,0,0-2.31-1c-1,0-1.65.52-1.65,1.27s.93,1,1.95,1.32c1.3.35,2.79.76,2.79,2.44,0,1.16-.79,2.35-3,2.35a4,4,0,0,1-3.07-1.27Z"/><path class="cls-5" d="M60.26,30.05h1v7.12H65v.88H60.26Z"/><path class="cls-5" d="M69.48,30.05h5.24v.89H70.47v2.58h4.17v.89H70.47v2.76h4.25v.88H69.48Z"/><path class="cls-5" d="M80.18,34.26c0-1-.52-1.34-1.3-1.34a2.22,2.22,0,0,0-1.71.9v4.23h-.9V32.26h.9v.84a2.87,2.87,0,0,1,2.06-1A1.65,1.65,0,0,1,81.08,34v4.06h-.9Z"/><path class="cls-5" d="M85.44,32.12a2.49,2.49,0,0,1,2.12,1l-.6.56a1.72,1.72,0,0,0-1.48-.76,2,2,0,0,0-2,2.23,2,2,0,0,0,2,2.24A1.76,1.76,0,0,0,87,36.64l.6.55a2.47,2.47,0,0,1-2.12,1,2.86,2.86,0,0,1-2.89-3.05A2.86,2.86,0,0,1,85.44,32.12Z"/><path class="cls-5" d="M88.82,32.26h.9v.94a2.45,2.45,0,0,1,1.93-1.06v.92a1.86,1.86,0,0,0-.36,0,2.1,2.1,0,0,0-1.57.92v4.1h-.9Z"/><path class="cls-5" d="M93.09,39.6A.84.84,0,0,0,94,39l.38-.88-2.42-5.85h1L94.82,37l1.92-4.75h1l-2.9,7a1.72,1.72,0,0,1-1.7,1.17,2.84,2.84,0,0,1-.66-.08l.14-.82A1.38,1.38,0,0,0,93.09,39.6Z"/><path class="cls-5" d="M98.66,40.26v-8h.9v.86a2.44,2.44,0,0,1,2-1c1.52,0,2.57,1.15,2.57,3s-1,3.05-2.57,3.05a2.37,2.37,0,0,1-2-1v3.08Zm2.63-7.34a2.15,2.15,0,0,0-1.73.92v2.62a2.16,2.16,0,0,0,1.73.93c1.16,0,1.86-1,1.86-2.24S102.45,32.92,101.29,32.92Z"/><path class="cls-5" d="M105.73,36.84V33.05h-1v-.79h1V30.68h.9v1.58h1.17v.79h-1.17v3.6c0,.43.19.74.59.74a.83.83,0,0,0,.61-.24l.26.68a1.5,1.5,0,0,1-1.08.37C106.16,38.2,105.73,37.71,105.73,36.84Z"/><path class="cls-5" d="M108.92,30.68a.61.61,0,0,1,1.21,0,.61.61,0,1,1-1.21,0Zm.16,1.58h.9v5.79h-.9Z"/><path class="cls-5" d="M111.44,35.15a2.87,2.87,0,1,1,5.73,0,2.87,2.87,0,1,1-5.73,0Zm4.79,0a1.95,1.95,0,1,0-3.85,0,1.95,1.95,0,1,0,3.85,0Z"/><path class="cls-5" d="M122.55,34.26c0-1-.52-1.34-1.3-1.34a2.24,2.24,0,0,0-1.71.9v4.23h-.9V32.26h.9v.84a2.87,2.87,0,0,1,2.06-1A1.65,1.65,0,0,1,123.45,34v4.06h-.9Z"/></g></g></svg>