<svg xmlns="http://www.w3.org/2000/svg" viewBox="0 0 150.25 53.87"><defs><style>.cls-1,.cls-4{isolation:isolate;}.cls-1{opacity:0.1;}.cls-2{fill:#0893d2;}.cls-3{fill:#32363d;}.cls-5{fill:#fff;}</style></defs><g id="Layer_2" data-name="Layer 2"><g id="Layer_1-2" data-name="Layer 1"><g class="cls-1"><rect class="cls-2" width="150.25" height="53.87" rx="5.12"/></g><path class="cls-3" d="M46.32,13.85h7.55v2H48.59v2.32h5.17v2H48.59v4.45H46.32Z"/><path class="cls-3" d="M60.05,23.73a3.22,3.22,0,0,1-2.45,1,2.58,2.58,0,0,1-2.69-2.56,2.45,2.45,0,0,1,2.69-2.47,3.11,3.11,0,0,1,2.45.95V19.57c0-.79-.67-1.3-1.7-1.3a3.26,3.26,0,0,0-2.26.91l-.76-1.36A5.07,5.07,0,0,1,58.7,16.6c1.76,0,3.38.71,3.38,2.93v5h-2Zm0-2A2,2,0,0,0,58.42,21c-.8,0-1.46.41-1.46,1.17s.66,1.13,1.46,1.13a2,2,0,0,0,1.63-.67Z"/><path class="cls-3" d="M64.3,22.09A4.44,4.44,0,0,0,67,23.15c.88,0,1.29-.3,1.29-.78s-.67-.74-1.55-.92c-1.33-.25-3-.57-3-2.41,0-1.3,1.13-2.44,3.17-2.44A4.94,4.94,0,0,1,70,17.66l-.82,1.39a3.27,3.27,0,0,0-2.29-.89c-.73,0-1.21.27-1.21.72s.61.65,1.47.83c1.33.26,3.1.61,3.1,2.53,0,1.41-1.2,2.48-3.34,2.48a5.24,5.24,0,0,1-3.46-1.2Z"/><path class="cls-3" d="M72.13,22.61v-4H70.85V16.8h1.28V14.68h2.05V16.8h1.56v1.77H74.18v3.49c0,.48.25.85.7.85a1.11,1.11,0,0,0,.7-.22L76,24.22a2.48,2.48,0,0,1-1.7.5A1.93,1.93,0,0,1,72.13,22.61Z"/><path class="cls-3" d="M46.31,36.17a3.35,3.35,0,0,0,2.51,1.14c1.43,0,1.89-.77,1.89-1.38,0-1-1-1.22-2-1.51-1.28-.34-2.71-.7-2.71-2.27,0-1.32,1.18-2.22,2.75-2.22a3.75,3.75,0,0,1,2.84,1.12l-.6.73a3.07,3.07,0,0,0-2.32-1c-1,0-1.64.52-1.64,1.27s.92,1,1.94,1.32c1.31.35,2.8.76,2.8,2.44,0,1.16-.79,2.35-3,2.35a4,4,0,0,1-3.07-1.27Z"/><path class="cls-3" d="M57.1,37.24a2.84,2.84,0,0,1-2.06,1,1.63,1.63,0,0,1-1.85-1.85V32.26h.9v3.82c0,1,.52,1.31,1.3,1.31a2.18,2.18,0,0,0,1.71-.87V32.26H58v5.79h-.9Z"/><path class="cls-3" d="M59.81,40.26v-8h.9v.86a2.42,2.42,0,0,1,1.95-1c1.52,0,2.58,1.15,2.58,3s-1.06,3.05-2.58,3.05a2.35,2.35,0,0,1-1.95-1v3.08Zm2.62-7.34a2.13,2.13,0,0,0-1.72.92v2.62a2.14,2.14,0,0,0,1.72.93c1.17,0,1.86-1,1.86-2.24S63.6,32.92,62.43,32.92Z"/><path class="cls-3" d="M66.69,40.26v-8h.9v.86a2.44,2.44,0,0,1,2-1c1.52,0,2.58,1.15,2.58,3s-1.06,3.05-2.58,3.05a2.38,2.38,0,0,1-2-1v3.08Zm2.63-7.34a2.15,2.15,0,0,0-1.73.92v2.62a2.16,2.16,0,0,0,1.73.93c1.16,0,1.86-1,1.86-2.24S70.48,32.92,69.32,32.92Z"/><path class="cls-3" d="M73.25,35.15a2.87,2.87,0,1,1,5.73,0,2.87,2.87,0,1,1-5.73,0Zm4.78,0a1.95,1.95,0,1,0-3.85,0,1.95,1.95,0,1,0,3.85,0Z"/><path class="cls-3" d="M80.44,32.26h.9v.94a2.45,2.45,0,0,1,1.94-1.06v.92a1.94,1.94,0,0,0-.36,0,2.12,2.12,0,0,0-1.58.92v4.1h-.9Z"/><path class="cls-3" d="M84.59,36.84V33.05h-1v-.79h1V30.68h.89v1.58h1.18v.79H85.48v3.6c0,.43.2.74.59.74a.83.83,0,0,0,.61-.24l.27.68a1.5,1.5,0,0,1-1.08.37C85,38.2,84.59,37.71,84.59,36.84Z"/><path class="cls-3" d="M90.78,37.26c2.88-2.26,4.43-3.6,4.43-5a1.49,1.49,0,0,0-1.66-1.47,2.66,2.66,0,0,0-2.17,1l-.61-.64a3.47,3.47,0,0,1,2.78-1.26,2.43,2.43,0,0,1,2.68,2.36c0,1.63-1.65,3.11-3.88,4.88h3.92v.88H90.78Z"/><path class="cls-3" d="M101.37,36h-3.8V35.2L101,30.05h1.37v5.1h1.12V36h-1.12v2h-1Zm-2.8-.88h2.8V31Z"/><path class="cls-3" d="M106.72,29.81h.71l-2.84,8.48h-.71Z"/><path class="cls-3" d="M112.11,30.94H107.8v-.89h5.46v.69L110,38.05h-1.11Z"/><g class="cls-4"><path class="cls-5" d="M25.43,36.54a9.19,9.19,0,1,0-9.32-9.19A9.25,9.25,0,0,0,25.43,36.54Z"/></g><path class="cls-2" d="M25.43,37.34a10,10,0,1,1,10.12-10A10.07,10.07,0,0,1,25.43,37.34Zm0-18.38A8.4,8.4,0,1,0,34,27.35,8.46,8.46,0,0,0,25.43,19Z"/><path class="cls-2" d="M29.36,16.25a.67.67,0,0,1-.24,0,12.71,12.71,0,0,0-7.38,0,.8.8,0,1,1-.47-1.53,14.21,14.21,0,0,1,8.32,0,.8.8,0,0,1,.53,1A.79.79,0,0,1,29.36,16.25Z"/><path class="cls-2" d="M25.43,28.15a.81.81,0,0,1-.61-.28.8.8,0,0,1,.1-1.13l4-3.39a.8.8,0,0,1,1,1.23L26,28A.8.8,0,0,1,25.43,28.15Z"/></g></g></svg>